<svg width="30" height="30" viewBox="0 0 30 30" fill="none" xmlns="http://www.w3.org/2000/svg">
<path d="M10 10L10 8.75C10 5.98858 12.2386 3.75 15 3.75V3.75C17.7614 3.75 20 5.98858 20 8.75L20 10" stroke="#5DB075" stroke-width="2" stroke-linecap="round"/>
<path fill-rule="evenodd" clip-rule="evenodd" d="M4.33579 9.33579C3.75 9.92157 3.75 10.8644 3.75 12.75V19.5C3.75 23.2712 3.75 25.1569 4.92157 26.3284C6.09315 27.5 7.97876 27.5 11.75 27.5H18.25C22.0212 27.5 23.9069 27.5 25.0784 26.3284C26.25 25.1569 26.25 23.2712 26.25 19.5V12.75C26.25 10.8644 26.25 9.92157 25.6642 9.33579C25.0784 8.75 24.1356 8.75 22.25 8.75H7.75C5.86438 8.75 4.92157 8.75 4.33579 9.33579ZM12.25 15C12.25 14.4477 11.8023 14 11.25 14C10.6977 14 10.25 14.4477 10.25 15V17.5C10.25 18.0523 10.6977 18.5 11.25 18.5C11.8023 18.5 12.25 18.0523 12.25 17.5V15ZM19.75 15C19.75 14.4477 19.3023 14 18.75 14C18.1977 14 17.75 14.4477 17.75 15V17.5C17.75 18.0523 18.1977 18.5 18.75 18.5C19.3023 18.5 19.75 18.0523 19.75 17.5V15Z" fill="#5DB075"/>
</svg>
