<svg width="30" height="30" viewBox="0 0 30 30" fill="none" xmlns="http://www.w3.org/2000/svg">
<path d="M14.9797 27.4999C8.09047 27.4923 2.50757 21.9003 2.5 14.9999C2.99138 15.1389 3.49943 15.21 4.01004 15.2112C5.69917 15.2236 7.2861 14.4022 8.25312 13.0149C9.11766 11.7644 9.30033 10.1636 8.73983 8.74997C9.09822 8.81399 9.46151 8.84661 9.82556 8.84747C11.444 8.85955 12.9801 8.13373 14 6.87498C14.9981 5.65342 15.3883 4.044 15.0608 2.5C21.9531 2.52244 27.5223 8.13704 27.4999 15.0406C27.4775 21.9441 21.872 27.5223 14.9797 27.4999ZM15.9319 23.2099C16.1238 23.2926 16.3306 23.3351 16.5396 23.3349C17.1703 23.3343 17.7387 22.9537 17.9803 22.3702C18.2218 21.7867 18.0892 21.1149 17.6441 20.6674C17.3507 20.3748 16.9536 20.2103 16.5396 20.2099C15.799 20.2116 15.1617 20.7347 15.0144 21.4617C14.8671 22.1887 15.2505 22.9192 15.9319 23.2099ZM8.63999 21.0937C8.89006 21.1972 9.15809 21.2503 9.4287 21.2499C10.273 21.2497 11.0335 20.7384 11.3534 19.9557C11.6733 19.1731 11.4893 18.2744 10.8876 17.6812C10.4986 17.2975 9.97461 17.0824 9.4287 17.0824C8.28053 17.0838 7.35028 18.0161 7.34959 19.1662C7.3498 20.0021 7.84763 20.7575 8.61503 21.0862H8.62127H8.635L8.63999 21.0937ZM20.4095 17.9599C21.2484 18.3128 22.2188 18.0783 22.8049 17.3813C23.3909 16.6843 23.4564 15.6866 22.9666 14.9187C22.8132 14.6795 22.6128 14.4741 22.3776 14.3149C21.7316 13.878 20.8959 13.8394 20.2125 14.2151C19.5291 14.5907 19.1128 15.3175 19.1338 16.098C19.1548 16.8785 19.6096 17.5817 20.3122 17.9199H20.2972L20.3347 17.9362L20.3596 17.9462H20.3521C20.37 17.9519 20.3874 17.9586 20.4046 17.9662L20.4095 17.9599ZM14.9797 12.9162C14.4819 12.9154 14.0532 13.2676 13.9568 13.7568C13.8604 14.2459 14.1233 14.7349 14.584 14.9236C15.0447 15.1123 15.5743 14.9479 15.8477 14.5313C16.1211 14.1146 16.0617 13.5624 15.706 13.2137C15.6132 13.1222 15.504 13.0493 15.384 12.9987L15.3615 12.9887L15.3278 12.9762C15.2161 12.9362 15.0983 12.916 14.9797 12.9162ZM19.6595 7.70872C18.861 7.70674 18.1908 8.31091 18.1089 9.10653C18.027 9.90215 18.5601 10.6305 19.3423 10.7917C20.1244 10.9529 20.9013 10.4945 21.1397 9.73117C21.3781 8.96781 21.0005 8.14768 20.266 7.83372H20.2536C20.0657 7.75334 19.8638 7.71086 19.6595 7.70872ZM5.61991 11.875C5.04578 11.875 4.58036 11.4088 4.58036 10.8337C4.58036 10.2586 5.04578 9.79246 5.61991 9.79246C6.19404 9.79246 6.65947 10.2586 6.65947 10.8337C6.65878 11.4085 6.19376 11.8743 5.61991 11.875ZM4.05996 8.74997C3.19842 8.74997 2.5 8.05042 2.5 7.18748C2.5 6.32453 3.19842 5.62498 4.05996 5.62498C4.9215 5.62498 5.61991 6.32453 5.61991 7.18748C5.61854 8.04984 4.92093 8.74859 4.05996 8.74997ZM10.2998 6.66623C9.43824 6.66623 8.73983 5.96668 8.73983 5.10374C8.73983 4.2408 9.43824 3.54124 10.2998 3.54124C11.1613 3.54124 11.8597 4.2408 11.8597 5.10374C11.8597 5.96688 11.1615 6.66679 10.2998 6.66748V6.66623ZM6.66072 4.58374C6.08675 4.58374 5.62139 4.11781 5.62116 3.54291C5.62093 2.96801 6.08592 2.50171 6.65989 2.50125C7.23385 2.50079 7.69958 2.96634 7.70027 3.54124C7.70027 4.11651 7.23505 4.58305 6.66072 4.58374Z" fill="#5DB075"/>
</svg>
