<svg width="30" height="30" viewBox="0 0 30 30" fill="none" xmlns="http://www.w3.org/2000/svg">
<path fill-rule="evenodd" clip-rule="evenodd" d="M14 10H5.75C4.80719 10 4.33579 10 4.04289 10.2929C3.75 10.5858 3.75 11.0572 3.75 12V14.25C3.75 15.1928 3.75 15.6642 4.04289 15.9571C4.33579 16.25 4.80719 16.25 5.75 16.25H7.5V16.5H14V10ZM7.5 18.5V24.25C7.5 25.1928 7.5 25.6642 7.79289 25.9571C8.08579 26.25 8.55719 26.25 9.5 26.25H14V18.5H7.5ZM16 26.25H20.5C21.4428 26.25 21.9142 26.25 22.2071 25.9571C22.5 25.6642 22.5 25.1928 22.5 24.25V18.5H16V26.25ZM22.5 16.5V16.25H24.25C25.1928 16.25 25.6642 16.25 25.9571 15.9571C26.25 15.6642 26.25 15.1928 26.25 14.25V12C26.25 11.0572 26.25 10.5858 25.9571 10.2929C25.6642 10 25.1928 10 24.25 10H16V16.5H22.5Z" fill="#5DB075"/>
<path d="M23.75 6.05848V5.27485C23.75 3.90974 22.4126 2.9458 21.1175 3.37748L20.5885 3.55384C18.9684 4.09386 17.4963 5.00365 16.2888 6.21118L15 7.5V8.75H19.6754C19.8904 8.75 20.104 8.71534 20.3079 8.64737L22.3825 7.95585C23.1991 7.68362 23.75 6.91934 23.75 6.05848Z" fill="#5DB075"/>
<path d="M6.25 6.05848V5.27485C6.25 3.90974 7.58739 2.9458 8.88245 3.37748L9.41151 3.55384C11.0316 4.09386 12.5037 5.00365 13.7112 6.21118L15 7.5V8.75H10.3246C10.1096 8.75 9.89603 8.71534 9.6921 8.64737L7.61754 7.95585C6.80086 7.68362 6.25 6.91934 6.25 6.05848Z" fill="#5DB075"/>
</svg>
