<svg width="30" height="30" viewBox="0 0 30 30" fill="none" xmlns="http://www.w3.org/2000/svg">
<path d="M15.3699 27.5C16.7985 27.5 17.9674 26.375 17.9674 25H12.7724C12.7724 25.663 13.046 26.2989 13.5331 26.7678C14.0203 27.2366 14.681 27.5 15.3699 27.5ZM23.1624 20V13.75C23.1624 9.9125 21.0324 6.7 17.318 5.85V5C17.318 3.9625 16.4478 3.125 15.3699 3.125C14.2919 3.125 13.4217 3.9625 13.4217 5V5.85C9.69431 6.7 7.57734 9.9 7.57734 13.75V20L5.90195 21.6125C5.08374 22.4 5.65519 23.75 6.81108 23.75H23.9156C25.0715 23.75 25.656 22.4 24.8378 21.6125L23.1624 20Z" fill="#5DB075"/>
</svg>
